<?xml version="1.0" encoding="utf-8"?>
<!DOCTYPE svg PUBLIC "-//W3C//DTD SVG 1.0//EN" "http://www.w3.org/TR/2001/REC-SVG-20010904/DTD/svg10.dtd">
<svg version="1.0" xmlns="http://www.w3.org/2000/svg" width="225px" height="225px" viewBox="0 0 225 225" preserveAspectRatio="xMidYMid meet">
 <g fill="#ffffff">
  <path d="M0 112.50 l0 -112.50 112.50 0 112.50 0 0 112.50 0 112.50 -112.50 0 -112.50 0 0 -112.50z m72.50 50.40 c0 -1.20 0.10 -3.55 0.20 -5.25 0.15 -2.45 0.05 -3.15 -0.50 -3.15 -0.55 0 -0.70 1.10 -0.70 5.25 0 3.15 0.20 5.25 0.50 5.25 0.30 0 0.50 -0.95 0.50 -2.10z m17.15 0.75 c-0.15 -0.80 -0.60 -2.40 -1 -3.65 l-0.65 -2.25 0.25 2.75 c0.15 1.50 0.25 3.15 0.25 3.65 0 0.45 0.35 0.85 0.75 0.85 0.60 0 0.70 -0.35 0.40 -1.35z m21.35 -3.90 c0 -3.15 -0.20 -5.25 -0.50 -5.25 -0.30 0 -0.50 2.10 -0.50 5.25 0 3.15 0.20 5.25 0.50 5.25 0.30 0 0.50 -2.10 0.50 -5.25z m13.45 -2.10 c0.05 -1.80 -0.15 -3.15 -0.45 -3.15 -0.30 0 -0.50 2.10 -0.45 5.40 0.05 4.35 0.15 4.95 0.50 3.10 0.20 -1.25 0.40 -3.65 0.40 -5.35z m38.55 2.10 c0 -3.15 -0.20 -5.25 -0.50 -5.25 -0.30 0 -0.50 2.10 -0.50 5.25 0 3.15 0.20 5.25 0.50 5.25 0.30 0 0.50 -2.10 0.50 -5.25z m-61.40 2.15 c-0.45 -0.45 -0.60 -0.35 -0.60 0.60 0 0.95 0.15 1.05 0.60 0.60 0.45 -0.45 0.45 -0.75 0 -1.20z m33.15 -1.90 c0 -2.95 -0.10 -3.35 -0.60 -2.65 -0.80 1 -0.85 3.85 -0.15 5.20 0.30 0.50 0.60 0.95 0.65 0.95 0.05 0 0.10 -1.60 0.10 -3.50z m13.75 -0.10 c-0.05 -3.40 -0.10 -3.55 -0.75 -2.40 -0.40 0.70 -0.70 1.75 -0.75 2.35 0 1 0.95 3.65 1.35 3.65 0.05 0 0.15 -1.65 0.15 -3.60z m7.95 -0.40 c0 -0.95 -0.30 -2.20 -0.70 -2.70 -0.70 -0.90 -0.75 -0.60 -0.75 3 0.05 3.70 0.10 3.85 0.75 2.70 0.40 -0.70 0.70 -2.05 0.70 -3z m-13.70 -1.05 c-0.60 -2.75 -1.25 -2 -1.20 1.40 l0.05 3.40 0.70 -1.70 c0.45 -1 0.60 -2.25 0.45 -3.10z m27.95 -0.20 c-0.15 -0.65 -0.55 -1.40 -0.85 -1.70 -0.45 -0.35 -0.55 0.40 -0.40 2.85 l0.20 3.35 0.65 -1.65 c0.40 -0.90 0.60 -2.15 0.40 -2.85z m-83.20 -3.25 c0 -0.25 -0.60 -0.50 -1.35 -0.45 l-1.40 0.05 1.25 0.40 c0.70 0.20 1.30 0.40 1.40 0.45 0.05 0.05 0.10 -0.15 0.10 -0.45z m43.50 -8.50 c1.85 -1 2 -2.95 2 -25.70 -0.05 -25.65 -0.75 -63.15 -1.25 -64.40 -0.20 -0.45 -0.65 -0.95 -1.05 -1.10 -1.10 -0.40 -2.15 2.25 -2.70 6.60 -1.05 8.60 -3.05 33.85 -2.80 34.90 0.20 0.65 1.30 1.85 2.55 2.70 2.20 1.55 2.25 1.60 2.25 4.40 0 1.55 -0.70 10.95 -1.50 20.80 -0.85 9.90 -1.40 18.65 -1.25 19.40 0.20 0.75 0.80 1.75 1.40 2.15 1.25 0.90 1.20 0.90 2.35 0.25z m18 -1.25 c0.95 -1.15 0.90 -2.65 -1 -35.25 -0.90 -15.65 -1.15 -22.35 -0.80 -24.10 0.20 -1.10 1.35 -2.90 3.10 -4.95 1.55 -1.75 3.40 -4.45 4.10 -5.95 3.25 -6.85 0.50 -16.30 -5.60 -19.50 l-2.15 -1.20 -2.35 1.40 c-2.75 1.60 -4.95 4.80 -6.15 8.75 -1.60 5.55 0.20 11.15 5.25 16.65 l2.85 3.05 0 6.05 c0 3.35 -0.30 11.55 -0.65 18.30 -2.15 38.40 -2.15 36.20 0.05 37.75 1.10 0.75 2.15 0.45 3.35 -1z m-41.50 -1.75 l0 -2.95 -2.10 -0.55 c-9.95 -2.40 -15.40 -5.45 -21.70 -12.05 -7.55 -8 -11.30 -19.15 -10.50 -31.45 0.35 -5.85 1.30 -9.65 3.60 -14.50 4.80 -10.25 15.70 -19.35 25.20 -21.10 1.85 -0.35 3.25 -0.90 3.50 -1.40 0.65 -1.20 1.20 -6 0.70 -6 -1.50 0 -7.60 1.95 -10.95 3.50 -6.05 2.80 -9.60 5.25 -14.30 9.95 -6.50 6.50 -10.70 13.90 -13 22.80 -5.40 21.10 7.70 45.40 29.05 53.75 2.40 0.95 9 2.90 10.15 2.95 0.20 0.05 0.35 -1.30 0.35 -2.95z m9.45 1.90 c1.20 -1.05 1.20 -1.15 0.85 -8.85 -0.20 -4.30 -0.55 -11.15 -0.80 -15.30 -0.25 -4.10 -0.75 -13.05 -1.05 -19.90 -0.35 -6.80 -0.70 -12.30 -0.75 -12.20 -0.10 0.10 -0.40 4.65 -0.70 10.10 -2.05 36.90 -2.35 44 -2.10 44.70 0.45 1.30 1.70 2.55 2.60 2.55 0.45 0 1.35 -0.50 1.95 -1.10z m-9.25 -14 c0.15 -1.45 0.50 -7.60 0.80 -13.65 0.30 -6.05 0.75 -15.15 1.05 -20.15 l0.55 -9.20 -1.75 -1.80 c-2.95 -3.05 -3.35 -4.60 -3.35 -13.10 l0 -7.55 -1.10 0.35 c-8 2.40 -16 8.60 -20 15.45 -2.75 4.70 -3.30 5.85 -4.45 10.05 -3.60 13.05 2.55 28.35 14.80 36.80 3.35 2.35 4.45 2.90 8.25 4.25 4.75 1.65 4.90 1.60 5.20 -1.45z m11.85 -50.60 c0.55 -0.85 0.95 -2.40 0.95 -3.40 l0 -1.90 -5.25 0 -5.25 0 0 2.50 c0 2.35 0.15 2.70 2.40 4.90 l2.35 2.35 1.95 -1.45 c1.05 -0.80 2.35 -2.15 2.85 -3z"/>
 </g>
 <g fill="#000000">
  <path d="M92.75 178.70 c0 -2.60 0.05 -2.70 1.35 -2.70 1.25 0 1.30 0.10 0.75 1.45 -0.25 0.75 -0.35 1.85 -0.15 2.35 0.35 0.90 0.40 0.90 1 0.10 0.35 -0.50 0.80 -0.90 1 -0.90 0.45 0 0.40 2 -0.05 2.05 -0.25 0 -1.20 0.10 -2.15 0.20 l-1.75 0.15 0 -2.70z"/>
  <path d="M107.90 181.15 c-1.05 -0.25 -1.65 -2.80 -0.90 -4.10 0.70 -1.40 3.75 -1.45 4.45 -0.15 0.60 1.15 0.20 3.15 -0.85 4 -0.80 0.60 -1.20 0.65 -2.70 0.25z m2.10 -2.40 c0 -1.20 -0.25 -1.75 -0.75 -1.75 -0.50 0 -0.75 0.50 -0.75 1.45 0 1.25 0.30 1.65 1.40 2 0.05 0.05 0.10 -0.75 0.10 -1.70z"/>
  <path d="M122.90 181.15 c-1.15 -0.30 -1.65 -2.40 -0.95 -3.95 0.40 -0.95 0.90 -1.20 2.45 -1.20 l1.90 0 -0.10 2.35 c-0.20 2.85 -0.90 3.45 -3.30 2.80z m2.10 -1.60 c0 -0.25 -0.30 -0.60 -0.60 -0.70 -0.40 -0.15 -0.25 -0.30 0.25 -0.30 1.15 -0.05 0.85 -1.25 -0.30 -1.45 -0.95 -0.20 -1.60 1 -1.15 2.15 0.30 0.80 1.80 1.05 1.80 0.30z"/>
  <path d="M136.25 181 c-0.20 -0.30 -0.10 -0.80 0.15 -1.15 0.25 -0.35 0.65 -1.35 0.85 -2.20 0.25 -1.30 0.60 -1.65 1.50 -1.65 0.95 0 1.30 0.45 1.95 2.35 0.90 2.60 0.90 2.50 -0.45 2.75 -0.80 0.10 -1.05 -0.15 -1.15 -1.35 -0.10 -0.80 -0.40 -1.70 -0.70 -2 -0.35 -0.35 -0.40 -0.15 -0.20 0.60 0.60 1.85 -1.10 4.05 -1.95 2.65z"/>
  <path d="M151.70 178.70 c0.05 -2.40 0.15 -2.70 1.10 -2.70 0.65 0 1.20 0.40 1.35 1 0.15 0.55 0.50 1 0.85 1 0.35 0 0.45 -0.40 0.25 -1 -0.25 -0.75 -0.10 -1 0.70 -1 0.90 0 1 0.25 0.70 2.65 -0.15 1.40 -0.40 2.70 -0.50 2.85 -0.15 0.15 -0.75 -0.35 -1.40 -1.10 -1.40 -1.65 -1.95 -1.80 -1.50 -0.45 0.20 0.65 0 1 -0.65 1.15 -0.90 0.25 -0.95 0 -0.90 -2.40z"/>
  <path d="M78.50 180.25 c0 -0.90 0.25 -0.90 1.55 -0.25 0.65 0.40 0.95 0.35 0.95 0 0 -0.30 -0.55 -0.75 -1.25 -1 -1.60 -0.60 -1.65 -2.35 -0.10 -2.95 1.25 -0.45 3 0 2.75 0.70 -0.10 0.30 -0.70 0.45 -1.40 0.40 -1.15 -0.10 -1.15 -0.10 -0.35 0.50 2.65 1.75 2.60 1.70 1.90 2.55 -0.90 1.05 -4.05 1.10 -4.05 0.05z"/>
  <path d="M68.65 166.35 c-0.15 -0.25 0.10 -0.80 0.55 -1.30 0.60 -0.65 0.80 -1.95 0.80 -5.45 0 -2.75 -0.20 -4.60 -0.50 -4.60 -0.25 0 -0.50 -0.45 -0.50 -1 0 -0.95 0.35 -1 5.50 -1 5.35 0 5.50 0.05 5.50 1.15 0 2.25 -0.60 3.35 -1.75 3.35 -0.75 0 -1.30 -0.40 -1.50 -1 -0.50 -1.60 -2.10 -1.25 -2.35 0.50 -0.30 1.90 -0.15 2 2.20 2 2.95 0 2.45 2.30 -0.60 2.60 -1.35 0.10 -1.80 0.40 -1.90 1.30 -0.15 0.90 0.05 1.10 1.10 1.10 1.05 0 1.30 0.25 1.30 1.20 0 1.15 -0.15 1.25 -3.80 1.40 -2.10 0.10 -3.90 -0.05 -4.05 -0.25z"/>
  <path d="M96.30 166.65 c-0.20 -0.20 -2.55 -0.30 -5.30 -0.25 -4.90 0.15 -6.15 -0.25 -4.75 -1.40 1.30 -1.10 0.90 -2 -0.95 -2 -1.95 0 -2.85 0.90 -1.60 1.60 0.45 0.25 0.80 0.80 0.80 1.15 0 0.60 -0.70 0.75 -3 0.75 -1.65 0 -3 -0.15 -3 -0.30 0 -0.15 0.30 -0.75 0.65 -1.35 0.30 -0.60 1.40 -3.45 2.35 -6.35 l1.75 -5.25 2.80 -0.15 2.75 -0.15 1.45 5.55 c0.75 3.10 1.75 5.95 2.20 6.40 0.75 0.70 0.80 0.65 1.05 -0.95 0.30 -2.05 2.20 -2.75 2.75 -1 0.20 0.75 0.75 1.05 1.80 1.05 2.20 0 1.80 -1.40 -0.70 -2.45 -2.90 -1.25 -3.85 -2.30 -3.85 -4.25 0 -2.45 1.85 -3.90 5.20 -4.20 3.25 -0.25 5.35 0.15 5.05 1.05 -0.10 0.30 -0.30 1.20 -0.45 2 -0.20 0.90 -0.65 1.35 -1.30 1.35 -0.55 0 -1 -0.20 -1 -0.50 0 -0.25 -0.45 -0.70 -1.05 -1 -0.75 -0.45 -1.20 -0.40 -1.80 0.05 -0.65 0.60 -0.65 0.75 0.35 1.55 0.60 0.50 1.40 0.90 1.75 0.90 0.40 0 1.35 0.60 2.20 1.30 1.90 1.60 2.05 3.55 0.40 5.10 -1.70 1.60 -5.65 2.65 -6.55 1.75z m-10.05 -7.75 c-0.55 -2.50 -1 -2.60 -1.60 -0.40 -0.50 1.95 -0.45 2 0.70 2 1.10 0 1.20 -0.15 0.90 -1.60z"/>
  <path d="M106.50 166.60 c-0.90 -0.30 -0.55 -1.10 0.75 -1.70 1.20 -0.55 1.25 -0.75 1.25 -5 0 -3.35 -0.15 -4.45 -0.60 -4.30 -0.35 0.15 -0.70 0.85 -0.80 1.55 -0.15 1.05 -0.45 1.35 -1.40 1.35 -1.10 0 -1.20 -0.15 -1.20 -2.75 l0 -2.75 6 0 6 0 0 2.75 c0 2.60 -0.10 2.75 -1.20 2.75 -0.95 0 -1.25 -0.30 -1.40 -1.35 -0.10 -0.70 -0.45 -1.40 -0.75 -1.55 -0.50 -0.15 -0.65 0.95 -0.65 4.30 0 4.25 0.05 4.45 1.25 5 0.70 0.30 1.25 0.80 1.25 1.05 0 0.45 -7.45 1 -8.50 0.65z"/>
  <path d="M120.25 166.55 c-0.15 -0.30 0.15 -1.15 0.70 -1.85 0.85 -1.10 1.05 -2.05 1.05 -5.30 0 -3.05 -0.15 -4 -0.75 -4.20 -0.40 -0.20 -0.75 -0.75 -0.75 -1.25 0 -0.90 0.45 -0.95 5.55 -0.95 5.55 0 5.55 0 5.25 1.15 -0.15 0.60 -0.30 1.60 -0.30 2.25 0 1.50 -2.25 1.60 -2.65 0.10 -0.15 -0.60 -0.70 -1 -1.30 -1 -0.85 0 -1.05 0.30 -1.05 1.75 0 1.70 0.05 1.75 2.05 1.75 1.80 0 2 0.10 1.85 1.15 -0.10 0.85 -0.50 1.10 -1.80 1.15 -1.85 0.05 -1.95 0.10 -2.20 1.45 -0.10 0.70 0.15 1.05 1 1.15 0.80 0.15 1.10 0.50 1.10 1.40 0 1.15 -0.15 1.20 -2.95 1.20 -1.65 0 -3.30 0.15 -3.70 0.30 -0.40 0.15 -0.90 0.05 -1.10 -0.25z"/>
  <path d="M135.15 166.30 c-0.85 -0.40 -1.90 -1.25 -2.35 -1.90 -1.85 -2.85 -1.40 -7.70 0.95 -9.90 1.45 -1.40 5.50 -1.95 7.70 -1 3.85 1.55 4.10 9.80 0.35 12.25 -1.75 1.15 -4.75 1.40 -6.65 0.55z m4.55 -3.10 c0.65 -1.65 0.30 -5.60 -0.60 -6.70 -1.20 -1.45 -2.55 -0.85 -2.70 1.20 -0.10 2.05 0 3.80 0.35 5.20 0.30 1.30 2.45 1.55 2.95 0.30z"/>
  <path d="M148.65 166.25 c-2.05 -0.90 -3.15 -3.05 -3.15 -6.25 0 -4.55 2.25 -7 6.50 -7 4.10 0 6.20 2.20 6.20 6.45 0 3.55 -0.95 5.35 -3.40 6.55 -2.45 1.15 -3.95 1.25 -6.15 0.25z m4.75 -5.75 c0.15 -3.80 -0.70 -5.65 -2.25 -4.70 -1 0.60 -1.45 3.80 -0.90 6.60 0.25 1.45 0.50 1.65 1.65 1.50 1.30 -0.15 1.35 -0.30 1.50 -3.40z"/>
  <path d="M161.90 166.65 c-2.15 -0.15 -2.90 -0.40 -2.90 -0.95 0 -0.40 0.35 -0.85 0.75 -1 1.15 -0.45 1.10 -9.70 -0.05 -9.70 -0.45 0 -0.70 -0.35 -0.60 -0.85 0.15 -0.75 0.80 -0.90 4.40 -1.05 6.50 -0.20 9 1.50 9 6.15 0 2.40 -1.25 5.10 -3 6.35 -1.45 1.05 -3.50 1.35 -7.60 1.05z m5.90 -4.45 c0.45 -1.80 -0.10 -5.20 -0.95 -6.10 -0.45 -0.40 -1.15 -0.60 -1.55 -0.45 -0.65 0.25 -0.80 1.15 -0.80 4.30 0 4.15 0.40 4.85 2.10 3.95 0.50 -0.25 1.05 -1 1.20 -1.70z"/>
  <path d="M104.95 147.70 c-5.20 -0.90 -11.65 -3.30 -11.85 -4.35 -0.25 -1.25 2 -1.10 6.25 0.35 1.90 0.65 4.40 1.35 5.55 1.55 l2.10 0.35 0 -2.25 0 -2.20 -2.85 -0.60 c-10 -2.20 -18.60 -7.95 -24.10 -16.05 -4.95 -7.30 -5.75 -9.30 -7.30 -18.70 -1.70 -10.10 0.50 -20.75 6 -29 2.80 -4.20 7.65 -8.80 9.35 -8.80 1.05 0 1.40 -0.25 1.40 -0.95 0 -1.70 6.35 -5.50 11 -6.50 1.50 -0.35 3.15 -0.75 3.60 -0.85 0.50 -0.15 0.95 -1 1.15 -2.15 0.25 -1.55 0.55 -2 1.60 -2.20 1.25 -0.25 1.25 -0.20 0.95 2.30 -0.50 3.70 -0.85 4.10 -4.30 4.75 -7.05 1.30 -16 7.45 -21.45 14.75 -10.90 14.60 -9.55 35.95 3.15 49.30 6.30 6.60 11.75 9.65 21.70 12.05 l2.10 0.55 0 3 c0 1.65 0.35 3.75 0.70 4.70 0.90 2.05 1.05 2 -4.75 0.95z"/>
  <path d="M113 147.85 c-2.85 -1.45 -2.85 0.55 0 -50.10 0.25 -4.40 0.45 -8.65 0.50 -9.45 0 -1.05 -0.65 -2.05 -2.60 -3.90 l-2.55 -2.50 0.35 -12.10 c0.45 -16.60 1 -19.15 1.30 -6.30 0.25 9.85 0.30 10.25 1.25 10.25 0.95 0 1 -0.45 1.30 -9.85 0.15 -5.45 0.40 -10 0.55 -10.15 0.25 -0.25 0.90 11.75 0.90 17.15 0 2.70 0.10 3.10 0.90 3.10 0.85 0 1 -0.60 1.25 -6.10 0.20 -3.30 0.35 -7.95 0.35 -10.25 0 -2.30 0.20 -4.10 0.45 -3.95 0.20 0.15 0.50 4.65 0.65 10.05 0.15 5.40 0.40 9.95 0.55 10.10 0.20 0.15 0.65 0.15 1.10 0 0.65 -0.30 0.75 -1.80 0.75 -10.45 0 -5.55 0.20 -9.90 0.40 -9.60 0.45 0.45 1.65 18.65 1.60 24.20 0 3.20 -1.05 5.20 -3.65 7.20 -1.55 1.20 -1.70 1.50 -1.55 3.45 0.25 2.45 1.45 24.90 2.30 43.10 0.30 6.90 0.45 13.05 0.25 13.75 -0.35 1.35 -2.65 3 -4.20 3 -0.50 0 -1.45 -0.30 -2.15 -0.65z"/>
  <path d="M127 147.60 c-0.65 -0.55 -1.15 -1.65 -1.35 -2.95 -0.15 -1.15 0.45 -11.05 1.35 -21.95 l1.65 -19.90 -1.40 -1 c-3.95 -2.80 -3.95 -2.80 -3.55 -9 0.35 -6.35 2.65 -32.15 3.05 -34.85 0.45 -2.65 2 -4.95 3.35 -4.95 2.45 0.05 3.10 1.20 3.50 5.90 0.45 6.45 1.10 83.55 0.70 85.75 -0.20 1.05 -0.80 2.35 -1.35 2.90 -1.20 1.20 -4.45 1.25 -5.95 0.05z"/>
  <path d="M144.35 147.95 c-0.55 -0.30 -1.25 -1.30 -1.65 -2.20 -0.70 -1.70 -0.75 -0.55 1.35 -38.50 0.35 -6.05 0.65 -13.40 0.65 -16.30 l0.05 -5.30 -2.85 -3.05 c-1.55 -1.70 -3.45 -4.35 -4.25 -5.95 -1.25 -2.65 -1.40 -3.40 -1.40 -8.20 0 -5.05 0.10 -5.45 1.75 -8.75 4.85 -9.50 13.80 -8.75 18.35 1.55 0.65 1.50 0.85 3.35 0.90 7.25 0 4.65 -0.15 5.55 -1.30 8 -0.75 1.50 -2.60 4.20 -4.15 5.95 -1.65 1.90 -2.90 3.85 -3.10 4.85 -0.15 0.85 -0.05 5.95 0.25 11.30 0.30 5.30 0.80 13.80 1.05 18.90 0.30 5.10 0.70 13.05 1 17.65 0.25 4.65 0.35 9.10 0.15 9.90 -0.55 2.80 -4.25 4.35 -6.80 2.90z"/>
  <path d="M82.20 136.85 c-5.20 -4.45 -10.10 -10.80 -12.50 -16.15 l-1.20 -2.70 1.50 0 c1.20 0 1.55 0.25 1.80 1.35 0.20 0.75 0.65 1.65 1 2 0.35 0.35 1.70 2.25 3 4.25 1.35 2 4.10 5.25 6.10 7.20 3.25 3.10 3.65 3.75 3.50 5.10 l-0.15 1.55 -3.05 -2.60z"/>
  <path d="M68.05 116.60 c-0.55 -1.05 -2.55 -8.70 -2.55 -9.80 0 -0.50 0.45 -0.80 1.15 -0.80 1 0 1.20 0.50 2.25 4.65 0.60 2.50 1.10 5.10 1.10 5.75 0 1.35 -1.25 1.50 -1.95 0.20z"/>
  <path d="M66.50 88.35 c0 -1.25 2.05 -7 3.55 -9.95 2.75 -5.45 5.10 -8.65 9.65 -13.15 l4.55 -4.50 0.15 1.65 c0.20 1.75 -0.95 3.60 -2.25 3.60 -0.35 0 -0.65 0.25 -0.65 0.50 0 0.30 -1.45 2.25 -3.25 4.40 -2 2.35 -4.25 5.90 -5.90 9.10 -1.40 2.90 -2.75 5.35 -2.95 5.40 -0.25 0.10 -0.40 0.95 -0.40 1.90 0 1.50 -0.15 1.70 -1.25 1.70 -0.70 0 -1.25 -0.30 -1.25 -0.65z"/>
  <path d="M109.10 85.55 c-1.35 -1.25 -2.10 -2.35 -2.10 -3.10 0.05 -1.15 0.05 -1.15 0.60 -0.20 0.30 0.55 1.35 1.85 2.30 2.85 2.40 2.55 1.85 2.85 -0.80 0.45z"/>
  <path d="M103.50 53.05 c0 -0.70 0.50 -1.05 1.75 -1.25 2.10 -0.40 2.75 -0.10 2.75 1.25 0 0.80 -0.35 0.95 -2.25 0.95 -1.85 0 -2.25 -0.15 -2.25 -0.95z"/>
 </g>
 <g fill="#f50f0f">
  <path d="M103.25 135.05 c-12.80 -3.70 -22.50 -14 -25.60 -27.15 -1.20 -5.25 -1.10 -12.60 0.30 -17.60 1.20 -4.25 1.65 -5.30 4.65 -10.40 3.50 -5.95 10.80 -11.85 17.70 -14.35 6.75 -2.45 6.50 -2.70 6.25 6.20 -0.20 8.55 0.20 10.20 3.30 13.35 l1.80 1.85 -0.30 6.15 c-0.20 3.40 -0.65 13 -1.10 21.40 -0.40 8.40 -0.85 16.50 -1 18 -0.10 1.50 -0.20 2.90 -0.25 3.15 0 0.60 -2.55 0.35 -5.75 -0.60z"/>
 </g>
 <g fill="#4c1a10">
  <path d="M108.90 148.15 c0.30 -0.15 0.60 -0.45 0.60 -0.70 0 -0.25 -0.55 -0.20 -1.30 0.05 -0.70 0.30 -1.75 0.50 -2.35 0.50 -0.90 0 -0.95 -0.10 -0.35 -0.55 0.55 -0.40 0.25 -0.45 -1.25 -0.20 -1.55 0.20 -1.85 0.15 -1.25 -0.25 0.60 -0.45 0.40 -0.50 -0.90 -0.30 -1.15 0.20 -1.55 0.10 -1.30 -0.30 0.25 -0.35 0 -0.45 -0.70 -0.30 -0.70 0.20 -1 0.10 -0.75 -0.25 0.20 -0.30 -0.10 -0.40 -0.75 -0.25 -0.70 0.20 -1 0.10 -0.75 -0.25 0.20 -0.30 -0.10 -0.40 -0.75 -0.25 -0.70 0.20 -1 0.10 -0.75 -0.25 0.20 -0.30 0 -0.40 -0.50 -0.20 -0.50 0.15 -0.85 0.10 -0.85 -0.15 0 -0.25 -0.30 -0.35 -0.60 -0.25 -0.85 0.30 -7.30 -3.30 -9.30 -5.15 -0.85 -0.80 -1.70 -1.40 -1.85 -1.30 -0.15 0.10 -0.15 0.05 0 -0.15 0.30 -0.40 -2.70 -3.65 -3.40 -3.65 -0.20 0 -0.25 0.30 -0.05 0.65 0.25 0.40 0.15 0.40 -0.45 -0.10 -0.45 -0.35 -0.75 -0.85 -0.60 -1.05 0.10 -0.15 -0.50 -1.10 -1.35 -2.05 -0.80 -0.95 -1.20 -1.25 -0.85 -0.70 0.65 0.90 0.60 0.95 -0.15 0.35 -0.45 -0.40 -0.75 -0.95 -0.60 -1.30 0.15 -0.35 -0.15 -0.95 -0.65 -1.35 -0.85 -0.65 -0.85 -0.65 -0.15 0.30 0.70 0.90 0.70 0.95 -0.10 0.35 -0.45 -0.40 -0.75 -0.95 -0.60 -1.35 0.15 -0.35 0 -0.80 -0.35 -1.05 -0.40 -0.25 -0.50 -0.15 -0.20 0.30 0.25 0.40 0.20 0.55 -0.15 0.30 -0.30 -0.20 -0.45 -0.65 -0.30 -1 0.15 -0.35 -0.25 -1.20 -0.80 -1.85 -0.60 -0.65 -0.95 -0.90 -0.75 -0.55 0.15 0.30 0.20 0.60 0.05 0.60 -0.55 0 -1.85 -3.05 -1.50 -3.60 0.25 -0.35 0.15 -0.40 -0.30 -0.15 -0.50 0.30 -0.60 0.20 -0.35 -0.40 0.15 -0.50 0.10 -0.85 -0.10 -0.85 -0.60 0 -1.60 -3 -1.20 -3.65 0.15 -0.30 0.05 -0.35 -0.25 -0.15 -0.35 0.20 -0.60 0.15 -0.60 -0.15 0 -0.25 -0.15 -0.85 -0.35 -1.35 -0.20 -0.55 -0.15 -0.75 0.20 -0.55 0.40 0.25 0.40 -0.25 0.05 -1.65 -0.30 -1.10 -0.75 -1.85 -1 -1.70 -0.30 0.20 -0.40 -0.30 -0.15 -1.35 0.20 -1.15 0.15 -1.45 -0.15 -1 -0.70 0.95 -1.30 -7.10 -0.95 -11.65 0.45 -4.80 1.40 -9.35 1.90 -9 0.25 0.15 0.40 -0.15 0.35 -0.65 -0.15 -1.80 0.10 -3.20 0.55 -2.95 0.60 0.40 1.10 -1 0.70 -2.05 -0.20 -0.50 -0.10 -0.70 0.20 -0.50 0.65 0.40 1.30 -1 0.80 -1.75 -0.20 -0.35 -0.05 -0.40 0.35 -0.15 0.50 0.30 0.60 0.20 0.35 -0.45 -0.25 -0.55 -0.15 -0.75 0.25 -0.50 0.40 0.25 0.45 0.10 0.25 -0.50 -0.25 -0.55 -0.15 -0.75 0.25 -0.50 0.40 0.25 0.45 0.10 0.25 -0.50 -0.25 -0.55 -0.15 -0.75 0.25 -0.50 0.40 0.25 0.45 0.10 0.25 -0.45 -0.20 -0.50 -0.10 -0.80 0.30 -0.70 0.35 0.05 0.55 -0.30 0.55 -0.75 -0.05 -0.50 0.10 -0.75 0.35 -0.60 0.40 0.25 0.65 -0.45 0.50 -1.40 0 -0.25 0.20 -0.35 0.50 -0.25 0.30 0.05 0.70 -0.20 0.85 -0.60 0.15 -0.50 0 -0.55 -0.45 -0.25 -0.60 0.30 -0.60 0.25 0 -0.45 0.40 -0.50 0.80 -0.75 0.95 -0.60 0.35 0.30 1.60 -0.75 1.60 -1.35 0 -0.25 -0.30 -0.30 -0.60 -0.15 -1.75 0.90 7.85 -7.85 10.40 -9.50 6.55 -4.25 15.25 -7.40 19.10 -6.95 1.60 0.15 1.65 0.10 0.60 -0.30 l-1.25 -0.45 1.25 0.10 c1.20 0.10 1.25 0.30 1.40 3.35 0.10 2.30 -0.05 3.05 -0.40 2.50 -0.50 -0.80 -0.60 -0.45 -0.75 3 -0.05 1.15 -0.20 1.25 -2 1.10 -1.50 -0.10 -1.80 0 -1.25 0.40 0.55 0.35 0.30 0.40 -0.95 0.15 -1.30 -0.25 -1.60 -0.15 -1.30 0.35 0.25 0.45 0.10 0.50 -0.65 0.30 -1.25 -0.40 -2.95 0.35 -4.25 1.90 -0.50 0.55 -0.80 0.75 -0.60 0.45 0.55 -1.05 -1.40 -0.15 -2.75 1.30 -0.70 0.75 -1.15 1.10 -1 0.80 0.15 -0.30 -0.20 -0.10 -0.75 0.50 -0.55 0.55 -1.65 1.55 -2.50 2.25 -1.10 0.95 -1.30 1 -0.75 0.25 0.70 -1 0.70 -1 -0.35 -0.05 -0.65 0.50 -1 1.15 -0.80 1.45 0.15 0.30 0.05 0.35 -0.25 0.15 -1 -0.60 -5.55 4.75 -8.25 9.70 -2.25 4.10 -3.70 8.85 -4.35 14.25 -0.55 4.50 -0.20 9.30 0.60 7.50 0.25 -0.60 0.25 0.10 0.10 1.70 -0.20 1.90 -0.15 2.60 0.25 2.35 0.30 -0.20 0.55 -0.05 0.55 0.40 0 0.40 0.15 1.15 0.30 1.65 0.25 0.75 0.20 0.75 -0.25 0.15 -0.70 -1 -0.70 -0.65 0.25 2.55 1.25 4.40 1.20 4.30 1.75 3.45 0.45 -0.60 0.50 -0.60 0.25 0.15 -0.35 1.10 1.05 4 1.70 3.60 0.30 -0.15 0.35 0 0.20 0.40 -0.15 0.45 0.20 1.10 0.90 1.55 0.60 0.45 0.90 0.80 0.65 0.80 -0.25 0 0 0.35 0.55 0.80 0.50 0.40 0.60 0.65 0.20 0.45 -0.40 -0.20 -0.10 0.25 0.70 0.95 0.80 0.65 1.55 1.65 1.60 2.15 0.20 1.15 2.60 3.25 3.30 2.85 0.30 -0.20 0.40 -0.10 0.20 0.20 -0.40 0.65 3 3.45 6.70 5.50 4.20 2.35 14.05 5.40 13.30 4.15 -0.20 -0.35 -0.05 -0.45 0.40 -0.25 0.60 0.20 0.70 1 0.60 3.50 -0.10 1.75 0 3.20 0.15 3.20 0.20 0 0.55 0.65 0.85 1.40 0.50 1.25 0.45 1.40 -0.50 1.45 -0.60 0.05 -0.75 -0.05 -0.40 -0.20z m-30.10 -81.25 l1.45 -1.65 -1.60 1.45 c-1.55 1.40 -1.90 1.80 -1.50 1.80 0.10 0 0.80 -0.75 1.65 -1.60z"/>
 </g>
</svg>